<svg id="Layer_1" data-name="Layer 1" xmlns="http://www.w3.org/2000/svg" viewBox="0 0 1390.57 873.66"><defs><style>.cls-1{fill:#fff;}.cls-2{fill:#255957;}.cls-3{fill:#3e938d;}.cls-4{fill:#e1e1e1;}.cls-5{fill:#b69c8f;}.cls-6{fill:#fefefd;}.cls-7{fill:#d8e6fe;}.cls-8{fill:#67c9c2;}</style></defs><path class="cls-1" d="M657.7,512.42H259.06c.63-2.29,2.28-3.3,3.54-4.56Q358.3,412.11,454,316.4c4.5-4.51,3.92-4.61,8.55,0q73.8,73.83,147.62,147.65,22.09,22.1,44.2,44.21C655.54,509.4,656.89,510.4,657.7,512.42Z" transform="translate(0 0)"/><path class="cls-1" d="M329.83,654.55l-1,1.12A1.39,1.39,0,0,1,329.83,654.55Z" transform="translate(0 0)"/><path class="cls-1" d="M407.15,680.33q.11,51,0,101.93c-.06,23.76-.16,24.39-4.54,24.51-11.89.31-23.78.11-35.66.11-11.52,0-23,.21-34.55-.1a4.45,4.45,0,0,1-2.56-.55v.17a2.15,2.15,0,0,1-1.11-2c-.79-2.78-.83-8.85-.86-22.17q-.12-51,0-101.94c.05-25.57.12-26,4.83-26.11,11.33-.27,22.66-.09,34-.09,11.89,0,23.77-.16,35.66.08C407,654.24,407.1,654.65,407.15,680.33Z" transform="translate(0 0)"/><path class="cls-1" d="M407.15,616.14q.11,10.51,0,21c-.06,4.9-.16,5-4.54,5.05-11.89.07-23.78,0-35.66,0-11.52,0-23,0-34.55,0-4.39,0-4.48-.14-4.53-5.07q-.12-10.51,0-21c.05-5.28.12-5.36,4.83-5.39,11.33,0,22.66,0,34,0,11.89,0,23.77,0,35.66,0C407,610.76,407.1,610.85,407.15,616.14Z" transform="translate(0 0)"/><path class="cls-1" d="M500.15,680.33q.11,51,0,101.93c-.06,23.76-.16,24.39-4.54,24.51-11.89.31-23.78.11-35.66.11-11.52,0-23,.21-34.55-.1-4.39-.13-4.48-.68-4.53-24.58q-.12-51,0-101.94c.05-25.57.12-26,4.83-26.11,11.33-.27,22.66-.09,34-.09,11.89,0,23.77-.16,35.66.08C500,654.24,500.1,654.65,500.15,680.33Z" transform="translate(0 0)"/><path class="cls-1" d="M501.15,616.14q.11,10.51,0,21c-.06,4.9-.16,5-4.54,5.05-11.89.07-23.78,0-35.66,0-11.52,0-23,0-34.55,0-4.39,0-4.48-.14-4.53-5.07q-.12-10.51,0-21c.05-5.28.12-5.36,4.83-5.39,11.33,0,22.66,0,34,0,11.89,0,23.77,0,35.66,0C501,610.76,501.1,610.85,501.15,616.14Z" transform="translate(0 0)"/><path class="cls-1" d="M593.15,680q.11,51,0,101.94c-.06,23.76-.16,24.39-4.54,24.51-11.89.31-23.78.11-35.66.11-11.52,0-23,.21-34.55-.11-4.39-.12-4.48-.67-4.53-24.57q-.12-51,0-101.94c0-25.57.12-26,4.83-26.11,11.33-.27,22.66-.09,34-.09,11.89,0,23.77-.17,35.66.08C593,654,593.1,654.36,593.15,680Z" transform="translate(0 0)"/><path class="cls-1" d="M593.15,616.54q.11,10.51,0,21c-.06,4.9-.16,5-4.54,5-11.89.07-23.78,0-35.66,0-11.52,0-23,0-34.55,0-4.39,0-4.48-.13-4.53-5.07q-.12-10.5,0-21c0-5.28.12-5.36,4.83-5.39,11.33,0,22.66,0,34,0,11.89,0,23.77,0,35.66,0C593,611.16,593.1,611.25,593.15,616.54Z" transform="translate(0 0)"/><path class="cls-1" d="M671.48,547.66c0-7.84.42-7.1-7.36-7.1H259.82c-1.3,0-2.61,0-3.91,0l-.49,0c-.62-.05-1.38-.07-2.36-.09s-1.86,0-2.79,0q-31.8,0-63.62,0c-12.46,0-24.92.11-37.38.17H28.69v333h208v-.13l14.83,0c3.09,0,4.79.15,5.72-.17l0,0c2,0,4.09.08,6.13.08,108.19,0,300.15-1.82,408.34-1.8ZM607.8,814.83c0,6-.06,6-7,6H321.69c-6.43,0-6.46,0-6.46-6.33V600.79c0-7-.3-6.53,6.82-6.53H600c7.35,0,7.79.35,7.79,7.91Q607.83,708.5,607.8,814.83Z" transform="translate(0 0)"/><path class="cls-1" d="M190.21,191.94c5.86-5.4,11.42-10.58,17-15.7l97-88.28c4.68-4.26,9.4-8.47,14-12.81a8,8,0,0,1,6.5-2.49c1.85.16,3.72,0,5.59,0q205.76,0,411.51.13a17.69,17.69,0,0,0,13.68-5.55c21-20.81,42.32-41.38,63.51-62l2-1.95c4.3-4.09,3.6-4.61,8.17-.15Q856.84,30,884.47,56.87c4.14,4,8.49,7.84,12.41,12.06a11.48,11.48,0,0,0,9.28,3.83c46.91-.11,93.81.06,140.71-.22a23.6,23.6,0,0,1,17.31,6.6c34.19,30.71,68.7,61.08,103.11,91.55q10.44,9.26,20.86,18.54c.91.82,2.25,1.39,2.3,3-1.43,1.18-3.16.63-4.74.63q-89.89,0-179.8.12c-4.19,0-6.87-1.64-9.64-4.4Q913.4,105.65,830.39,22.83c-5.43-5.43-4.27-5.53-9.7-.09Q758.58,85,696.49,147.27c-14.2,14.22-28.58,28.27-42.76,42.5a10.14,10.14,0,0,1-7.86,3.2q-225.58-.1-451.16-.08C193.47,192.89,192.13,193.29,190.21,191.94Z" transform="translate(0 0)"/><path class="cls-1" d="M1201.89,236.29c0-.51.24-.76.75-.76C1202.72,236.11,1202.49,236.38,1201.89,236.29Z" transform="translate(0 0)"/><path class="cls-1" d="M1203,235.15a.58.58,0,0,1,.63-.75C1203.8,235,1203.57,235.21,1203,235.15Z" transform="translate(0 0)"/><path class="cls-1" d="M1204.1,233.92a.59.59,0,0,1,.65-.68C1204.92,233.84,1204.69,234.05,1204.1,233.92Z" transform="translate(0 0)"/><path class="cls-1" d="M1206.81,231.54l-.46,0a.41.41,0,0,1,.41-.42Z" transform="translate(0 0)"/><path class="cls-1" d="M1207.94,230.39l-.45,0a.44.44,0,0,1,.38-.4Z" transform="translate(0 0)"/><path class="cls-1" d="M1353.39,812c-.12,1.65-.34,3.31-.34,5Q1353,844.5,1353,872c-.59,1.61-2,1.43-3.27,1.43q-31.18,0-62.37,0c-3.47,0-3.47-.15-3.94-5.52-1.67,0-3.35-.1-5-.1H791.69l-3.9,0c-.12.8-.23,1.59-.35,2.38l-83.75.4c0-78-3-216.9-2.94-294.95,0-3.15.21-6.3.31-9.45-.64-7.42-.07-14.87-.33-22.3-.09-2.75,1.14-3.66,3.68-3.49,1.29.09,2.6,0,3.9,0q319.28,0,638.55,0c2,0,4.08.17,6.12.26l-.12,25.54c.06,1.3.16,2.59.16,3.89q0,117.3,0,234.6C1353,807.19,1352.67,809.62,1353.39,812Z" transform="translate(0 0)"/><path class="cls-1" d="M930.35,184.28H726.57c-7.46,0-7-.54-7,6.87q0,78.16,0,156.32c0,2,.18,4.09.28,6.13,1.48,0,3,.14,4.45.14H932.7c1.48,0,3-.1,4.45-.15.07-2.23.2-4.46.21-6.69q0-77.88,0-155.76C937.37,183.66,937.78,184.28,930.35,184.28ZM788.44,322.06c-.05,17.78-.12,18.25-3.4,18.34-8.9.23-17.8.08-26.69.08-8.62,0-17.24.16-25.86-.08-3.29-.09-3.35-.5-3.39-18.39q-.09-38.14,0-76.3c0-19.13.09-19.45,3.62-19.54,8.48-.2,17-.07,25.44-.07,8.89,0,17.79-.12,26.69.07,3.5.07,3.55.38,3.59,19.59Q788.52,283.9,788.44,322.06Zm0-108.6c-.05,3.67-.12,3.77-3.4,3.78-8.9,0-17.8,0-26.69,0-8.62,0-17.24,0-25.86,0-3.29,0-3.35-.11-3.39-3.8-.06-5.24-.05-10.49,0-15.74,0-3.94.09-4,3.62-4,8.48,0,17,0,25.44,0,8.89,0,17.79,0,26.69,0,3.5,0,3.55.08,3.59,4C788.49,203,788.5,208.22,788.44,213.46ZM858,322.06c0,17.78-.11,18.25-3.4,18.34-8.89.23-17.79.08-26.69.08-8.62,0-17.23.16-25.85-.08-3.29-.09-3.35-.5-3.39-18.39q-.09-38.14,0-76.3c0-19.13.09-19.45,3.61-19.54,8.48-.2,17-.07,25.44-.07,8.9,0,17.8-.12,26.69.07,3.51.07,3.56.38,3.59,19.59Q858.12,283.9,858,322.06Zm.75-108.6c0,3.67-.11,3.77-3.4,3.78-8.89,0-17.79,0-26.69,0-8.62,0-17.24,0-25.85,0-3.29,0-3.35-.11-3.39-3.8q-.09-7.86,0-15.74c0-3.94.09-4,3.62-4,8.48,0,17,0,25.44,0,8.9,0,17.79,0,26.69,0,3.5,0,3.55.08,3.59,4C858.84,203,858.85,208.22,858.79,213.46Zm68.86,108.38c0,17.78-.12,18.25-3.4,18.34-8.9.24-17.79.08-26.69.08-8.62,0-17.24.16-25.86-.08-3.28-.09-3.35-.5-3.39-18.39q-.09-38.15,0-76.29c0-19.14.09-19.46,3.62-19.55,8.48-.2,17-.06,25.44-.06,8.89,0,17.79-.13,26.69.06,3.5.07,3.55.38,3.59,19.59Q927.73,283.69,927.65,321.84Zm0-108.08c0,3.67-.12,3.76-3.4,3.78-8.9.05-17.79,0-26.69,0-8.62,0-17.24,0-25.86,0-3.28,0-3.35-.1-3.39-3.79-.06-5.25,0-10.49,0-15.74,0-3.95.09-4,3.62-4,8.48,0,17,0,25.44,0,8.89,0,17.79,0,26.69,0,3.5,0,3.55.08,3.59,4C927.7,203.27,927.71,208.51,927.65,213.76Z" transform="translate(0 0)"/><path class="cls-1" d="M788.44,245.76q.07,38.14,0,76.3c-.05,17.78-.12,18.25-3.4,18.34-8.9.23-17.8.08-26.69.08-8.62,0-17.24.16-25.86-.08-3.29-.09-3.35-.5-3.39-18.39q-.09-38.14,0-76.3c0-19.13.09-19.45,3.62-19.54,8.48-.2,17-.07,25.44-.07,8.89,0,17.79-.12,26.69.07C788.35,226.24,788.4,226.55,788.44,245.76Z" transform="translate(0 0)"/><path class="cls-1" d="M788.44,197.72c0,5.25.06,10.5,0,15.74-.05,3.67-.12,3.77-3.4,3.78-8.9,0-17.8,0-26.69,0-8.62,0-17.24,0-25.86,0-3.29,0-3.35-.11-3.39-3.8-.06-5.24-.05-10.49,0-15.74,0-3.94.09-4,3.62-4,8.48,0,17,0,25.44,0,8.89,0,17.79,0,26.69,0C788.35,193.7,788.4,193.76,788.44,197.72Z" transform="translate(0 0)"/><path class="cls-1" d="M858,245.76q.08,38.14,0,76.3c0,17.78-.11,18.25-3.4,18.34-8.89.23-17.79.08-26.69.08-8.62,0-17.23.16-25.85-.08-3.29-.09-3.35-.5-3.39-18.39q-.09-38.14,0-76.3c0-19.13.09-19.45,3.61-19.54,8.48-.2,17-.07,25.44-.07,8.9,0,17.8-.12,26.69.07C858,226.24,858,226.55,858,245.76Z" transform="translate(0 0)"/><path class="cls-1" d="M858.79,197.72c.05,5.25.06,10.5,0,15.74,0,3.67-.11,3.77-3.4,3.78-8.89,0-17.79,0-26.69,0-8.62,0-17.24,0-25.85,0-3.29,0-3.35-.11-3.39-3.8q-.09-7.86,0-15.74c0-3.94.09-4,3.62-4,8.48,0,17,0,25.44,0,8.9,0,17.79,0,26.69,0C858.7,193.7,858.75,193.76,858.79,197.72Z" transform="translate(0 0)"/><path class="cls-1" d="M927.65,245.54q.08,38.15,0,76.3c0,17.78-.12,18.25-3.4,18.34-8.9.24-17.79.08-26.69.08-8.62,0-17.24.16-25.86-.08-3.28-.09-3.35-.5-3.39-18.39q-.09-38.15,0-76.29c0-19.14.09-19.46,3.62-19.55,8.48-.2,17-.06,25.44-.06,8.89,0,17.79-.13,26.69.06C927.56,226,927.61,226.33,927.65,245.54Z" transform="translate(0 0)"/><path class="cls-1" d="M927.65,198c.05,5.25.06,10.49,0,15.74,0,3.67-.12,3.76-3.4,3.78-8.9.05-17.79,0-26.69,0-8.62,0-17.24,0-25.86,0-3.28,0-3.35-.1-3.39-3.79-.06-5.25,0-10.49,0-15.74,0-3.95.09-4,3.62-4,8.48,0,17,0,25.44,0,8.89,0,17.79,0,26.69,0C927.56,194,927.61,194.06,927.65,198Z" transform="translate(0 0)"/><path class="cls-1" d="M1388.46,503.19q-10.38-11.12-20.78-22.2a25.12,25.12,0,0,1-4.65-6.14,51.69,51.69,0,0,1-10.65-10.44c-5.29-6.69-11.63-12.37-17.19-18.8-9.78-11.32-20.31-22-30.45-33-2.74-3-5.21-6.21-7.8-9.33-2.85-1.83-5-4.42-7.2-6.92-9.28-10.6-19.38-20.46-28.4-31.32-2.6-3.13-5.76-5.8-8.48-8.86-2-2.3-4.59-2.07-7.18-2.07h-84.23c-4.09,0-8.18,0-12.27-.07,0-2.22.79-4.55-.84-6.57q.11-30.83.22-61.66c0-3.32-.34-6.66.31-10l-.45-7.92,0-3q0-10.68-.07-21.36c.07-7.44.07-14.88.22-22.31.05-2.64-1-3.78-3.61-3.57-.92.08-1.85,0-2.79,0H1008.27c-.93,0-1.86.07-2.79,0-2.63-.2-3.64,1-3.59,3.6.13,7.44.13,14.88.18,22.32q-.06,13.91-.11,27.83-.08,41.19-.12,82.38l-21.89.14c-.08-2.6-.22-5.2-.22-7.8,0-43.16-.16-86.31.12-129.46a23.32,23.32,0,0,0-7.69-18.17c-15.06-14.59-29.75-29.57-44.79-44.19-5.41-5.25-10.63-10.83-15.93-16.23-27-27.44-54.35-54.55-81.58-81.77-4.53-4.53-3.78-4.54-8.51.19q-72.4,72.39-144.86,144.75a11.9,11.9,0,0,0-3.83,9.26q.2,68.36.09,136.71c0,2.23-.11,4.46-.17,6.69l-22,0c-.05-2.38-.15-4.76-.15-7.15q0-42.36,0-84.72c0-6.13-.11-12.25-.17-18.38s.18-12.27.17-18.41c0-8.26.83-7.36-7.54-7.36q-202.3,0-404.61,0c-1.3,0-2.61,0-3.91,0-4,.14-4.17.18-4.2,4s0,7.85,0,11.77h-.13v21.49h.18q0,9.27-.06,18.54-.07,40-.12,80.07c-2.23.09-4.45.26-6.68.26-29.77,0-59.55.08-89.32-.07-3.87,0-6.46,1-9,4-22.72,26.84-45.62,53.53-68.44,80.28q-27.54,32.26-55,64.6c-.74.86-2.3,1.51-1.31,3.43H5.19q102.17,0,204.33.09a14.26,14.26,0,0,0,11.2-4.59q79.08-79.57,158.43-158.9,36.69-36.73,73.53-73.31c5.52-5.5,5.56-5.52,11.26.19,29.87,29.86,59.93,59.52,89.69,89.49,47.2,47.54,94.72,94.76,142,142.23a14.93,14.93,0,0,0,11.63,4.9q341.66-.16,683.32-.08C1390.47,504.87,1389.32,504.12,1388.46,503.19ZM932.7,353.74H724.29c-1.48,0-3-.09-4.45-.14-.1-2-.28-4.09-.28-6.13q0-78.15,0-156.32c0-7.41-.44-6.87,7-6.87H930.35c7.43,0,7-.62,7,6.86q0,77.88,0,155.76c0,2.23-.14,4.46-.21,6.69C935.67,353.64,934.18,353.74,932.7,353.74Z" transform="translate(0 0)"/><path class="cls-2" d="M1388.46,503.19q-10.38-11.12-20.78-22.2a25.12,25.12,0,0,1-4.65-6.14,51.69,51.69,0,0,1-10.65-10.44c-5.29-6.69-11.63-12.37-17.19-18.8-9.78-11.32-20.31-22-30.45-33-2.74-3-5.21-6.21-7.8-9.33-2.85-1.83-5-4.42-7.2-6.92-9.28-10.6-19.38-20.46-28.4-31.32-2.6-3.13-5.76-5.8-8.48-8.86-2-2.3-4.59-2.07-7.18-2.07h-84.23c-4.09,0-8.18,0-12.27-.07a6.34,6.34,0,0,1-.86-.21c-2,.08-4.08.25-6.11.25H1007.94c-2,0-4.07-.2-6.1-.31l-21.89.14q-20.33.07-40.64.12a9.75,9.75,0,0,1-2.16-.44c-1.48.05-3,.15-4.45.15H724.29c-1.48,0-3-.09-4.45-.14a23.11,23.11,0,0,1-3.28.46q-22,0-44-.17l-22,0c-11.88.08-23.77.19-35.65.22-13,0-26-.11-39,.08a11.52,11.52,0,0,1-9.31-3.74c-7.19-7.52-14.51-14.92-22.06-22.07-27.53-26-53.91-53.24-80.86-79.85-1.58-1.56-3.37-2.94-4.48-4.93h-1.93l-.06.09h0c-1.12,1.94-2.88,3.31-4.43,4.84-22.43,22-44.62,44.28-67.42,65.9-12.69,12-25,24.47-37.5,36.64-1.95,1.9-3.84,3.11-6.77,3.1-35.91-.1-71.82-.06-107.73-.08-1.1,0-2.21-.19-3.32-.3-2.23.09-4.45.26-6.68.26-29.77,0-59.55.08-89.32-.07-3.87,0-6.46,1-9,4-22.72,26.84-45.62,53.53-68.44,80.28q-27.54,32.26-55,64.6c-.74.86-2.3,1.51-1.31,3.43H5.19q102.17,0,204.33.09a14.26,14.26,0,0,0,11.2-4.59q79.08-79.57,158.43-158.9,36.69-36.73,73.53-73.31c5.52-5.5,5.56-5.52,11.26.19,29.87,29.86,59.93,59.52,89.69,89.49,47.2,47.54,94.72,94.76,142,142.23a14.93,14.93,0,0,0,11.63,4.9q341.66-.16,683.32-.08C1390.47,504.87,1389.32,504.12,1388.46,503.19Z" transform="translate(0 0)"/><path class="cls-2" d="M1188.15,189.23q-10.39-9.31-20.86-18.54c-34.41-30.47-68.92-60.84-103.11-91.55a23.6,23.6,0,0,0-17.31-6.6c-46.9.28-93.8.11-140.71.22a11.48,11.48,0,0,1-9.28-3.83c-3.92-4.22-8.27-8-12.41-12.06Q856.85,30,829.25,3.14c-4.57-4.46-3.87-3.94-8.17.15l-2,2c-21.19,20.65-42.47,41.22-63.51,62a17.69,17.69,0,0,1-13.68,5.55q-205.75-.25-411.51-.13c-1.87,0-3.74.13-5.59,0a8,8,0,0,0-6.5,2.49c-4.61,4.34-9.33,8.55-14,12.81l-97,88.28c-5.62,5.12-11.18,10.3-17,15.7,1.92,1.35,3.26.95,4.5.95q225.57,0,451.16.08a10.14,10.14,0,0,0,7.86-3.2c14.18-14.23,28.56-28.28,42.76-42.5q62.14-62.22,124.2-124.53c5.43-5.44,4.27-5.34,9.7.09q83,82.85,165.88,165.77c2.77,2.76,5.45,4.41,9.64,4.4q89.89-.21,179.8-.12c1.58,0,3.31.55,4.74-.63C1190.4,190.62,1189.06,190.05,1188.15,189.23Z" transform="translate(0 0)"/><path class="cls-3" d="M657.7,512.42H259.06c.63-2.29,2.28-3.3,3.54-4.56Q358.3,412.11,454,316.4c4.5-4.51,3.92-4.61,8.55,0q73.8,73.83,147.62,147.65,22.09,22.1,44.2,44.21C655.54,509.4,656.89,510.4,657.7,512.42Z" transform="translate(0 0)"/><path class="cls-3" d="M980,353.91q-20.33.07-40.64.12a9.75,9.75,0,0,1-2.16-.44c.07-2.23.2-4.46.21-6.69q0-77.88,0-155.76c0-7.48.41-6.86-7-6.86H726.57c-7.46,0-7-.54-7,6.87q0,78.16,0,156.32c0,2,.18,4.09.28,6.13a23.11,23.11,0,0,1-3.28.46q-22,0-44-.17c.06-2.23.17-4.46.17-6.69q0-68.35-.09-136.71a11.9,11.9,0,0,1,3.83-9.26Q749,128.93,821.35,56.48c4.73-4.73,4-4.72,8.51-.19,27.23,27.22,54.58,54.33,81.58,81.77,5.3,5.4,10.52,11,15.93,16.23,15,14.62,29.73,29.6,44.79,44.19a23.32,23.32,0,0,1,7.69,18.17c-.28,43.15-.14,86.3-.12,129.46C979.73,348.71,979.87,351.31,980,353.91Z" transform="translate(0 0)"/><path class="cls-3" d="M1148.56,285.81q-.15,30.84-.22,61.66c-1.82,2.12-.92,4.24,0,6.36-2,.08-4.08.25-6.11.25H1007.94c-2,0-4.07-.2-6.1-.31q.06-41.19.12-82.38,0-13.92.11-27.83c-.05-7.44-.05-14.88-.18-22.32,0-2.6,1-3.8,3.59-3.6.93.07,1.86,0,2.79,0H1142.2c.94,0,1.87.08,2.79,0,2.62-.21,3.66.93,3.61,3.57-.15,7.43-.15,14.87-.22,22.31q0,10.68.07,21.36l0,3,.45,7.92C1148.22,279.15,1148.57,282.49,1148.56,285.81Z" transform="translate(0 0)"/><path class="cls-4" d="M1283.39,868c-1.67,0-3.35-.1-5-.1H791.69l-3.9,0c0-.78.07-1.56.11-2.35,1.49,0,3,0,4.46,0h486.52c1.48,0,3-.05,4.46-.07C1283.36,866.32,1283.37,867.13,1283.39,868Z" transform="translate(0 0)"/><path class="cls-5" d="M1201.89,236.29c0-.51.24-.76.75-.76C1202.72,236.11,1202.49,236.38,1201.89,236.29Z" transform="translate(0 0)"/><path class="cls-5" d="M1203,235.15a.58.58,0,0,1,.63-.75C1203.8,235,1203.57,235.21,1203,235.15Z" transform="translate(0 0)"/><path class="cls-5" d="M1204.1,233.92a.59.59,0,0,1,.65-.68C1204.92,233.84,1204.69,234.05,1204.1,233.92Z" transform="translate(0 0)"/><path class="cls-5" d="M1206.81,231.54l-.46,0a.41.41,0,0,1,.41-.42Z" transform="translate(0 0)"/><path class="cls-5" d="M1207.94,230.39l-.45,0a.44.44,0,0,1,.38-.4Z" transform="translate(0 0)"/><path class="cls-5" d="M1149.18,354a6.34,6.34,0,0,1-.86-.21c-.9-2.12-1.8-4.24,0-6.36C1150,349.49,1149.14,351.82,1149.18,354Z" transform="translate(0 0)"/><path class="cls-6" d="M787.75,652.29c0-15.63-.09-31.26-.07-46.89,0-4.2.13-4.2,4.49-4.32,1.11,0,2.23,0,3.35,0h481.26c7.64,0,6.8-.37,6.8,7,0,14.7-.07,29.4-.12,44.1-2.79,0-5.58.1-8.37.1H998.21Q893,652.32,787.75,652.29Zm236.69-36.74c-8,0-16,0-24-.1-2.81,0-4,.93-4,3.85.13,6.5.07,13,0,19.49,0,2.26.78,3.54,3.22,3.43,1.11-.06,2.22,0,3.34,0h66.27c1.12,0,2.23,0,3.34,0,2,.06,3.14-.77,3.13-2.92,0-6.86,0-13.73,0-20.6,0-1.37-.86-1.94-2.12-2.05l-42.2-.08C1029.09,616.55,1026.67,616.72,1024.44,615.55Zm240.18,1c-13.49,0-27,0-40.47,0a37.81,37.81,0,0,1-9.84-1c-8,0-16,0-24-.1-2.88,0-4,1-3.91,3.92.13,5.76,0,11.53,0,17.29,0,5.5,0,5.55,5.54,5.55q34,0,68.07,0c.93,0,1.86,0,2.79,0,2.16,0,2.92-1.14,2.91-3.15,0-6.88,0-13.76-.07-20.64A2.36,2.36,0,0,0,1264.62,616.55Zm-428.93-1-25-.07c-1.89,0-3.61-.07-4,2.62-1,6.81-1,13.64-1,20.49,0,2.58,1,3.68,3.59,3.64,5.57-.1,11.13,0,16.7,0q27.54,0,55.1,0c4.85,0,4.9-.08,4.93-5,0-6.13,0-12.25,0-18.37-.37-3.26-2.93-2.24-4.74-2.25q-17.8-.12-35.6,0A37.68,37.68,0,0,1,835.69,615.56Zm296.08-.07c-11.89,0-23.78,0-35.67,0-4.41,0-4.53.13-4.58,4.24q-.12,9.19,0,18.39c.06,3.84.24,4,4.21,4.06,8.17.07,16.35,0,24.52,0,15.23,0,30.46,0,45.69,0,4.73,0,4.8-.08,4.85-4.53q.11-8.91,0-17.83c0-4.22-.13-4.31-4.48-4.33C1154.8,615.45,1143.28,615.49,1131.77,615.49ZM940.7,642.22c11.89,0,23.78,0,35.66,0,4.39,0,4.49-.13,4.54-4.29q.12-8.91,0-17.83c0-4.49-.11-4.56-4.8-4.58-11.88,0-23.77,0-35.66,0-11.33,0-22.66,0-34,0-4.71,0-4.78.1-4.83,4.57q-.11,8.91,0,17.83c.06,4.18.14,4.28,4.53,4.3C917.67,642.25,929.18,642.22,940.7,642.22Z" transform="translate(0 0)"/><path class="cls-6" d="M1283.37,690.39a122,122,0,0,1,.05,15.42c-2.05,0-4.09.08-6.14.08H914.52q-63.35,0-126.69,0a125.41,125.41,0,0,1,0-15.51c.92,0,1.85,0,2.78,0h488.81C1280.77,690.31,1282.07,690.36,1283.37,690.39Z" transform="translate(0 0)"/><path class="cls-6" d="M787.85,723.71a129.45,129.45,0,0,1,0-15.51c1.3,0,2.6,0,3.9,0h486.62c1.67,0,3.34.06,5,.09a122.06,122.06,0,0,1,0,15.42c-2.6,0-5.21.08-7.81.08H888.86Q838.36,723.75,787.85,723.71Z" transform="translate(0 0)"/><path class="cls-6" d="M787.86,741.58a136.37,136.37,0,0,1,0-15.53l5,0h485c1.86,0,3.72.05,5.58.08a128.11,128.11,0,0,1,0,15.43c-2.78,0-5.57.08-8.36.08H907.83Z" transform="translate(0 0)"/><path class="cls-6" d="M787.82,812a133.92,133.92,0,0,1,0-15.52l3.34,0h487.14c1.68,0,3.35.05,5,.08a124,124,0,0,1,.06,15.42c-3.16,0-6.32.09-9.48.09H800.66C796.38,812,792.1,812,787.82,812Z" transform="translate(0 0)"/><path class="cls-6" d="M787.83,829.82a133.93,133.93,0,0,1,0-15.52c1.3,0,2.6,0,3.9,0h486.61c1.67,0,3.34.06,5,.09a125.93,125.93,0,0,1,0,15.42c-2.42,0-4.83.08-7.25.08h-226Z" transform="translate(0 0)"/><path class="cls-6" d="M1283.42,832.2a132.55,132.55,0,0,1,0,15.44c-3,0-6,.08-8.93.08h-380q-53.3,0-106.59,0l0-15.52c1.12,0,2.24,0,3.35,0H1279C1280.44,832.12,1281.93,832.17,1283.42,832.2Z" transform="translate(0 0)"/><path class="cls-6" d="M1283.34,865.49c-1.49,0-3,.08-4.46.08H792.36c-1.49,0-3,0-4.46,0a125.42,125.42,0,0,1-.09-15.51l2.79,0H1279c1.49,0,3,0,4.47.08A116.67,116.67,0,0,1,1283.34,865.49Z" transform="translate(0 0)"/><path class="cls-1" d="M787.79,776.24q0-7.23,0-14.46c1.12,0,2.23,0,3.35,0H1279c1.49,0,3,.07,4.46.1q0,7.17,0,14.34c-2.78,0-5.57.1-8.36.1H798.39C794.86,776.28,791.32,776.25,787.79,776.24Z" transform="translate(0 0)"/><path class="cls-1" d="M1283.42,744q0,7.17,0,14.34c-2.79,0-5.58.11-8.37.11q-181.71,0-363.42,0-62,0-123.94,0,0-7.23.08-14.47c1.49,0,3,0,4.46,0H1278.4C1280.07,743.88,1281.75,743.94,1283.42,744Z" transform="translate(0 0)"/><path class="cls-1" d="M787.79,670.13q0-7.23,0-14.46c1.31,0,2.61,0,3.91,0h486.74c1.67,0,3.35.07,5,.1q0,7.17,0,14.34c-3,0-6,.11-8.92.11H799C795.23,670.18,791.51,670.15,787.79,670.13Z" transform="translate(0 0)"/><path class="cls-1" d="M787.81,688q0-7.23,0-14.47c1.11,0,2.23,0,3.34,0h487.35c1.67,0,3.35.07,5,.11q0,7.17,0,14.35c-3.72,0-7.44.1-11.16.1H801.2C796.74,688,792.27,688,787.81,688Z" transform="translate(0 0)"/><path class="cls-1" d="M1283.46,779.7q0,7.17,0,14.34c-2.23,0-4.47.1-6.7.1H963.05l-175.26,0q0-7.25,0-14.49c1.12,0,2.23,0,3.35,0h487.34C1280.11,779.59,1281.79,779.66,1283.46,779.7Z" transform="translate(0 0)"/><path class="cls-4" d="M1283.45,655.73c-1.67,0-3.35-.1-5-.1H791.69c-1.3,0-2.6,0-3.91,0l0-3.38q105.22,0,210.46,0h276.88c2.79,0,5.58-.07,8.37-.1C1283.46,653.39,1283.45,654.56,1283.45,655.73Z" transform="translate(0 0)"/><path class="cls-4" d="M1283.47,673.59c-1.67,0-3.35-.11-5-.11H791.1c-1.11,0-2.23,0-3.34,0l0-3.39c3.72,0,7.44,0,11.16,0h475.56c3,0,6-.07,8.92-.11C1283.45,671.24,1283.46,672.42,1283.47,673.59Z" transform="translate(0 0)"/><path class="cls-4" d="M1283.46,779.7c-1.67,0-3.35-.11-5-.11H791.1c-1.12,0-2.23,0-3.35,0,0-1.13,0-2.25,0-3.38,3.53,0,7.07,0,10.6,0h476.69c2.79,0,5.58-.07,8.36-.1C1283.45,777.35,1283.45,778.52,1283.46,779.7Z" transform="translate(0 0)"/><path class="cls-4" d="M787.74,758.39q62,0,123.94,0,181.71,0,363.42,0c2.79,0,5.58-.07,8.37-.11,0,1.17,0,2.35,0,3.52-1.48,0-3-.1-4.46-.1H791.15c-1.12,0-2.23,0-3.35,0Z" transform="translate(0 0)"/><path class="cls-4" d="M1283.42,850.07c-1.49,0-3-.08-4.47-.08H790.6l-2.79,0c0-.78,0-1.56,0-2.34q53.29,0,106.59,0h380c3,0,6-.06,8.93-.08C1283.4,848.45,1283.41,849.26,1283.42,850.07Z" transform="translate(0 0)"/><path class="cls-4" d="M1283.42,832.2c-1.49,0-3-.08-4.46-.08H791.17c-1.11,0-2.23,0-3.35,0,0-.78,0-1.56,0-2.34l262.3,0h226c2.42,0,4.83-.05,7.25-.08C1283.41,830.58,1283.42,831.39,1283.42,832.2Z" transform="translate(0 0)"/><path class="cls-4" d="M1283.39,814.35c-1.68,0-3.35-.09-5-.09H791.76c-1.3,0-2.6,0-3.9,0,0-.78,0-1.56,0-2.34,4.28,0,8.56,0,12.84,0H1274c3.16,0,6.32-.06,9.48-.09C1283.42,812.72,1283.4,813.54,1283.39,814.35Z" transform="translate(0 0)"/><path class="cls-4" d="M787.79,794.11l175.26,0h313.69c2.23,0,4.47-.07,6.7-.1,0,.81,0,1.63-.07,2.45-1.67,0-3.34-.08-5-.08H791.21l-3.34,0C787.84,795.66,787.82,794.88,787.79,794.11Z" transform="translate(0 0)"/><path class="cls-4" d="M787.81,688c4.46,0,8.93,0,13.39,0h471.07c3.72,0,7.44-.07,11.16-.1l-.06,2.45c-1.3,0-2.6-.08-3.9-.08H790.66c-.93,0-1.86,0-2.78,0C787.85,689.56,787.83,688.78,787.81,688Z" transform="translate(0 0)"/><path class="cls-4" d="M1283.42,726.1c-1.86,0-3.72-.08-5.58-.08h-485l-5,0,0-2.34q50.51,0,101,0h386.73c2.6,0,5.21,0,7.81-.08C1283.4,724.48,1283.41,725.29,1283.42,726.1Z" transform="translate(0 0)"/><path class="cls-4" d="M1283.39,708.25c-1.68,0-3.35-.09-5-.09H791.75c-1.3,0-2.6,0-3.9,0,0-.78,0-1.56,0-2.35q63.34,0,126.69,0h362.76c2,0,4.09,0,6.14-.08Z" transform="translate(0 0)"/><path class="cls-4" d="M1283.42,744c-1.67,0-3.35-.1-5-.1H792.28c-1.48,0-3,0-4.46,0,0-.78,0-1.56,0-2.34l120,0H1275c2.79,0,5.58-.05,8.36-.08C1283.39,742.34,1283.41,743.16,1283.42,744Z" transform="translate(0 0)"/><path class="cls-7" d="M329.84,806.23v.17a2.15,2.15,0,0,1-1.11-2c0-.43,0-.87.06-1.31C330,803.86,329.81,805.08,329.84,806.23Z" transform="translate(0 0)"/><path class="cls-7" d="M328.78,638.87l1,1.15Z" transform="translate(0 0)"/><path class="cls-7" d="M329.83,654.55l-1,1.12A1.39,1.39,0,0,1,329.83,654.55Z" transform="translate(0 0)"/><path class="cls-7" d="M329.81,608.72c-.34.39-.69.77-1,1.15C329.12,609.49,329.47,609.11,329.81,608.72Z" transform="translate(0 0)"/><path class="cls-8" d="M1131.77,615.49c11.51,0,23,0,34.54,0,4.35,0,4.43.11,4.48,4.33q.12,8.91,0,17.83c0,4.45-.12,4.52-4.85,4.53-15.23,0-30.46,0-45.69,0-8.17,0-16.35,0-24.52,0-4,0-4.15-.22-4.21-4.06q-.13-9.2,0-18.39c0-4.11.17-4.23,4.58-4.24C1108,615.45,1119.88,615.49,1131.77,615.49Z" transform="translate(0 0)"/><path class="cls-8" d="M940.7,642.22c-11.52,0-23,0-34.55,0-4.39,0-4.47-.12-4.53-4.3q-.11-8.91,0-17.83c0-4.47.12-4.55,4.83-4.57,11.33,0,22.66,0,34,0,11.89,0,23.78,0,35.66,0,4.69,0,4.75.09,4.8,4.58q.11,8.91,0,17.83c0,4.16-.15,4.27-4.54,4.29C964.48,642.25,952.59,642.22,940.7,642.22Z" transform="translate(0 0)"/><path class="cls-8" d="M845.57,642.26c-11.52,0-23,0-34.55,0-4.39,0-4.47-.12-4.53-4.3q-.11-8.91,0-17.83c0-4.47.12-4.54,4.83-4.56,11.33,0,22.66,0,34,0,11.89,0,23.78,0,35.66,0,4.69,0,4.75.09,4.8,4.58q.11,8.93,0,17.83c0,4.16-.15,4.27-4.54,4.29C869.34,642.3,857.46,642.26,845.57,642.26Z" transform="translate(0 0)"/><path class="cls-8" d="M1035.57,642.26c-11.52,0-23,0-34.55,0-4.39,0-4.47-.12-4.53-4.3q-.11-8.91,0-17.83c0-4.47.12-4.54,4.83-4.56,11.33,0,22.66,0,34,0,11.89,0,23.78,0,35.66,0,4.69,0,4.75.09,4.8,4.58q.11,8.93,0,17.83c0,4.16-.15,4.27-4.54,4.29C1059.34,642.3,1047.46,642.26,1035.57,642.26Z" transform="translate(0 0)"/><path class="cls-8" d="M1225.5,641.77c-11.51,0-23,0-34.54,0-4.39,0-4.48-.12-4.53-4.3q-.12-8.91,0-17.83c0-4.47.11-4.54,4.83-4.56,11.33,0,22.66,0,34,0,11.88,0,23.77,0,35.66,0,4.68,0,4.75.09,4.8,4.58.06,6,.07,11.89,0,17.83,0,4.16-.15,4.27-4.54,4.29C1249.28,641.81,1237.39,641.77,1225.5,641.77Z" transform="translate(0 0)"/><path class="cls-8" d="M593.15,637.57c-.06,4.9-.16,5-4.54,5-11.89.07-23.78,0-35.66,0-11.52,0-23,0-34.55,0-4.39,0-4.48-.13-4.53-5.07q-.12-10.5,0-21c0-5.28.12-5.36,4.83-5.39,11.33,0,22.66,0,34,0,11.89,0,23.77,0,35.66,0,4.68,0,4.75.11,4.8,5.4Q593.26,627.05,593.15,637.57Z" transform="translate(0 0)"/><path class="cls-8" d="M593.15,782c-.06,23.76-.16,24.39-4.54,24.51-11.89.31-23.78.11-35.66.11-11.52,0-23,.21-34.55-.11-4.39-.12-4.48-.67-4.53-24.57q-.12-51,0-101.94c0-25.57.12-26,4.83-26.11,11.33-.27,22.66-.09,34-.09,11.89,0,23.77-.17,35.66.08,4.68.1,4.75.51,4.8,26.18Q593.26,731,593.15,782Z" transform="translate(0 0)"/><path class="cls-8" d="M500.15,782.26c-.06,23.76-.16,24.39-4.54,24.51-11.89.31-23.78.11-35.66.11-11.52,0-23,.21-34.55-.1-4.39-.13-4.48-.68-4.53-24.58q-.12-51,0-101.94c.05-25.57.12-26,4.83-26.11,11.33-.27,22.66-.09,34-.09,11.89,0,23.77-.16,35.66.08,4.68.1,4.75.51,4.8,26.19Q500.26,731.28,500.15,782.26Z" transform="translate(0 0)"/><path class="cls-8" d="M407.15,782.26c-.06,23.76-.16,24.39-4.54,24.51-11.89.31-23.78.11-35.66.11-11.52,0-23,.21-34.55-.1a4.45,4.45,0,0,1-2.56-.55,3.2,3.2,0,0,1-1.11-1.86c-.79-2.78-.83-8.85-.86-22.17q-.12-51,0-101.94c.05-25.57.12-26,4.83-26.11,11.33-.27,22.66-.09,34-.09,11.89,0,23.77-.16,35.66.08,4.68.1,4.75.51,4.8,26.19Q407.26,731.28,407.15,782.26Z" transform="translate(0 0)"/><path class="cls-8" d="M501.15,637.17c-.06,4.9-.16,5-4.54,5.05-11.89.07-23.78,0-35.66,0-11.52,0-23,0-34.55,0-4.39,0-4.48-.14-4.53-5.07q-.12-10.51,0-21c.05-5.28.12-5.36,4.83-5.39,11.33,0,22.66,0,34,0,11.89,0,23.77,0,35.66,0,4.68,0,4.75.11,4.8,5.4Q501.26,626.66,501.15,637.17Z" transform="translate(0 0)"/><path class="cls-8" d="M407.15,637.17c-.06,4.9-.16,5-4.54,5.05-11.89.07-23.78,0-35.66,0-11.52,0-23,0-34.55,0-4.39,0-4.48-.14-4.53-5.07q-.12-10.51,0-21c.05-5.28.12-5.36,4.83-5.39,11.33,0,22.66,0,34,0,11.89,0,23.77,0,35.66,0,4.68,0,4.75.11,4.8,5.4Q407.26,626.66,407.15,637.17Z" transform="translate(0 0)"/><path class="cls-8" d="M927.65,213.76c0,3.67-.12,3.76-3.4,3.78-8.9.05-17.79,0-26.69,0-8.62,0-17.24,0-25.86,0-3.28,0-3.35-.1-3.39-3.79-.06-5.25,0-10.49,0-15.74,0-3.95.09-4,3.62-4,8.48,0,17,0,25.44,0,8.89,0,17.79,0,26.69,0,3.5,0,3.55.08,3.59,4C927.7,203.27,927.71,208.51,927.65,213.76Z" transform="translate(0 0)"/><path class="cls-8" d="M927.65,321.84c0,17.78-.12,18.25-3.4,18.34-8.9.24-17.79.08-26.69.08-8.62,0-17.24.16-25.86-.08-3.28-.09-3.35-.5-3.39-18.39q-.09-38.15,0-76.29c0-19.14.09-19.46,3.62-19.55,8.48-.2,17-.06,25.44-.06,8.89,0,17.79-.13,26.69.06,3.5.07,3.55.38,3.59,19.59Q927.73,283.69,927.65,321.84Z" transform="translate(0 0)"/><path class="cls-8" d="M858,322.06c0,17.78-.11,18.25-3.4,18.34-8.89.23-17.79.08-26.69.08-8.62,0-17.23.16-25.85-.08-3.29-.09-3.35-.5-3.39-18.39q-.09-38.14,0-76.3c0-19.13.09-19.45,3.61-19.54,8.48-.2,17-.07,25.44-.07,8.9,0,17.8-.12,26.69.07,3.51.07,3.56.38,3.59,19.59Q858.12,283.9,858,322.06Z" transform="translate(0 0)"/><path class="cls-8" d="M788.44,322.06c-.05,17.78-.12,18.25-3.4,18.34-8.9.23-17.8.08-26.69.08-8.62,0-17.24.16-25.86-.08-3.29-.09-3.35-.5-3.39-18.39q-.09-38.14,0-76.3c0-19.13.09-19.45,3.62-19.54,8.48-.2,17-.07,25.44-.07,8.89,0,17.79-.12,26.69.07,3.5.07,3.55.38,3.59,19.59Q788.52,283.9,788.44,322.06Z" transform="translate(0 0)"/><path class="cls-8" d="M858.79,213.46c0,3.67-.11,3.77-3.4,3.78-8.89,0-17.79,0-26.69,0-8.62,0-17.24,0-25.85,0-3.29,0-3.35-.11-3.39-3.8q-.09-7.86,0-15.74c0-3.94.09-4,3.62-4,8.48,0,17,0,25.44,0,8.9,0,17.79,0,26.69,0,3.5,0,3.55.08,3.59,4C858.84,203,858.85,208.22,858.79,213.46Z" transform="translate(0 0)"/><path class="cls-8" d="M788.44,213.46c-.05,3.67-.12,3.77-3.4,3.78-8.9,0-17.8,0-26.69,0-8.62,0-17.24,0-25.86,0-3.29,0-3.35-.11-3.39-3.8-.06-5.24-.05-10.49,0-15.74,0-3.94.09-4,3.62-4,8.48,0,17,0,25.44,0,8.89,0,17.79,0,26.69,0,3.5,0,3.55.08,3.59,4C788.49,203,788.5,208.22,788.44,213.46Z" transform="translate(0 0)"/><path class="cls-3" d="M650.61,353.86V354c-11.88.08-23.77.19-35.65.22-13,0-26-.11-39,.08a11.52,11.52,0,0,1-9.31-3.74c-7.19-7.52-14.51-14.92-22.06-22.07-27.53-26-53.91-53.24-80.86-79.85-1.58-1.56-3.37-2.94-4.48-4.93h-1.93c-1.12,2-2.91,3.37-4.49,4.93-22.43,22-44.62,44.28-67.42,65.9-12.69,12-25,24.47-37.5,36.64-1.95,1.9-3.84,3.11-6.77,3.1-35.91-.1-71.82-.06-107.73-.08-1.1,0-2.21-.19-3.32-.3v-.09q.06-40,.12-80.07,0-9.27.06-18.54h-.18V233.66h.13c0-3.92-.05-7.85,0-11.77s.18-3.91,4.2-4c1.3,0,2.61,0,3.91,0q202.31,0,404.61,0c8.37,0,7.53-.9,7.54,7.36,0,6.14-.11,12.27-.17,18.41s.17,12.25.17,18.38q0,42.36,0,84.72C650.46,349.1,650.56,351.48,650.61,353.86Z" transform="translate(0 0)"/><path class="cls-3" d="M1353.39,812c-.12,1.65-.34,3.31-.34,5Q1353,844.5,1353,872c-.59,1.61-2,1.43-3.27,1.43q-31.18,0-62.37,0c-3.47,0-3.47-.15-3.94-5.52,0-.82,0-1.63-.05-2.45a115,115,0,0,0,.08-15.42c0-.81,0-1.63,0-2.44a132.38,132.38,0,0,0,0-15.43c0-.81,0-1.62,0-2.43a126.09,126.09,0,0,0,0-15.43c0-.81,0-1.62,0-2.43.12-2.68.21-5.35.21-8,0-1.23,0-2.46-.06-3.68v0c0-1.24-.11-2.48-.2-3.71l.06-2.45q0-7.17,0-14.34c0-1.17,0-2.35,0-3.52V761.84l0-3.52q0-7.17,0-14.34c0-.82,0-1.63,0-2.45a128,128,0,0,0,0-15.42c0-.81,0-1.63,0-2.44a122.06,122.06,0,0,0,0-15.42l0-2.44a122.06,122.06,0,0,0-.05-15.42l.06-2.45q0-7.17,0-14.35c0-1.17,0-2.34,0-3.52q0-7.17,0-14.34c0-1.17,0-2.34,0-3.51,0-14.7.12-29.4.12-44.1,0-7.42.84-7-6.8-7H795.52c-1.12,0-2.24,0-3.35,0-4.36.12-4.48.13-4.49,4.32,0,15.63,0,31.26.07,46.9,0,1.12,0,2.25,0,3.37v14.47l0,3.39q0,7.23,0,14.47c0,.78,0,1.56.07,2.35a125.41,125.41,0,0,0,0,15.51c0,.78,0,1.56,0,2.34a129.62,129.62,0,0,0,0,15.52l0,2.34a136.2,136.2,0,0,0,0,15.52c0,.78,0,1.57,0,2.35q0,7.23-.08,14.47l.06,3.39q0,7.22,0,14.45c0,1.13,0,2.26,0,3.39q0,7.23,0,14.48c0,.78.05,1.55.08,2.33a133.93,133.93,0,0,0,0,15.52c0,.78,0,1.55,0,2.34h0a133.93,133.93,0,0,0,0,15.52v2.33q0,7.76,0,15.53c0,.77,0,1.55,0,2.33a125.42,125.42,0,0,0,.09,15.51c0,.79-.08,1.57-.11,2.35s-.23,1.59-.35,2.38l-83.75.4c0-78-3-216.9-2.94-294.95,0-3.15.21-6.3.31-9.45-.64-7.42-.07-14.87-.33-22.3-.09-2.75,1.14-3.66,3.68-3.49,1.29.09,2.6,0,3.9,0q319.28,0,638.55,0c2,0,4.08.17,6.12.26l-.12,25.54c.06,1.3.16,2.59.16,3.89q0,117.3,0,234.6C1353,807.19,1352.67,809.62,1353.39,812Z" transform="translate(0 0)"/><path class="cls-3" d="M671.48,547.66c0-7.84.42-7.1-7.36-7.1H259.82c-1.3,0-2.61,0-3.91,0l-.49,0c-.62-.05-1.38-.07-2.36-.09s-1.86,0-2.79,0q-31.8,0-63.62,0c-12.46,0-24.92.11-37.38.17H28.69v333h208v-.13l14.83,0c3.09,0,4.79.15,5.72-.17l0,0c2,0,4.09.08,6.13.08,108.19,0,300.15-1.82,408.34-1.8ZM607.8,814.83c0,6-.06,6-7,6H321.69c-6.43,0-6.46,0-6.46-6.33V600.79c0-7-.3-6.53,6.82-6.53H600c7.35,0,7.79.35,7.79,7.91Q607.83,708.5,607.8,814.83Z" transform="translate(0 0)"/><path class="cls-1" d="M600,594.27h-278c-7.12,0-6.82-.48-6.82,6.53V814.56c0,6.31,0,6.32,6.46,6.33H600.76c7,0,7,0,7-6q0-106.32,0-212.65C607.8,594.62,607.36,594.27,600,594.27Zm-192.86,188c-.06,23.76-.16,24.39-4.54,24.51-11.89.31-23.78.11-35.66.11-11.52,0-23,.21-34.55-.1a4.45,4.45,0,0,1-2.56-.55v.17a2.15,2.15,0,0,1-1.11-2c-.79-2.78-.83-8.85-.86-22.17q-.12-51,0-101.94c.05-25.57.12-26,4.83-26.11,11.33-.27,22.66-.09,34-.09,11.89,0,23.77-.16,35.66.08,4.68.1,4.75.51,4.8,26.19Q407.26,731.28,407.15,782.26ZM328.79,655.67a1.39,1.39,0,0,1,1-1.12Zm78.36-18.5c-.06,4.9-.16,5-4.54,5.05-11.89.07-23.78,0-35.66,0-11.52,0-23,0-34.55,0-4.39,0-4.48-.14-4.53-5.07q-.12-10.51,0-21c.05-5.28.12-5.36,4.83-5.39,11.33,0,22.66,0,34,0,11.89,0,23.77,0,35.66,0,4.68,0,4.75.11,4.8,5.4Q407.26,626.66,407.15,637.17Zm93,145.09c-.06,23.76-.16,24.39-4.54,24.51-11.89.31-23.78.11-35.66.11-11.52,0-23,.21-34.55-.1-4.39-.13-4.48-.68-4.53-24.58q-.12-51,0-101.94c.05-25.57.12-26,4.83-26.11,11.33-.27,22.66-.09,34-.09,11.89,0,23.77-.16,35.66.08,4.68.1,4.75.51,4.8,26.19Q500.26,731.28,500.15,782.26Zm1-145.09c-.06,4.9-.16,5-4.54,5.05-11.89.07-23.78,0-35.66,0-11.52,0-23,0-34.55,0-4.39,0-4.48-.14-4.53-5.07q-.12-10.51,0-21c.05-5.28.12-5.36,4.83-5.39,11.33,0,22.66,0,34,0,11.89,0,23.77,0,35.66,0,4.68,0,4.75.11,4.8,5.4Q501.26,626.66,501.15,637.17Zm92,144.8c-.06,23.76-.16,24.39-4.54,24.51-11.89.31-23.78.11-35.66.11-11.52,0-23,.21-34.55-.11-4.39-.12-4.48-.67-4.53-24.57q-.12-51,0-101.94c0-25.57.12-26,4.83-26.11,11.33-.27,22.66-.09,34-.09,11.89,0,23.77-.17,35.66.08,4.68.1,4.75.51,4.8,26.18Q593.26,731,593.15,782Zm0-144.4c-.06,4.9-.16,5-4.54,5-11.89.07-23.78,0-35.66,0-11.52,0-23,0-34.55,0-4.39,0-4.48-.13-4.53-5.07q-.12-10.5,0-21c0-5.28.12-5.36,4.83-5.39,11.33,0,22.66,0,34,0,11.89,0,23.77,0,35.66,0,4.68,0,4.75.11,4.8,5.4Q593.26,627.05,593.15,637.57Z" transform="translate(0 0)"/><path class="cls-1" d="M705.34,506.31a14.8,14.8,0,0,1-9.72-4.81c-47.27-47.47-94.79-94.69-142-142.23-29.76-30-59.82-59.63-89.69-89.49-5.7-5.71-5.74-5.69-11.26-.19q-36.78,36.65-73.53,73.31-79.29,79.38-158.43,158.9a14,14,0,0,1-9.28,4.5H.32L0,540.76H1353l37.59-.24v-34.2ZM454,316.4c4.5-4.51,3.92-4.61,8.55,0q73.8,73.83,147.62,147.65,21.12,21.1,42.24,42.25H264.16Q359.08,411.34,454,316.4Z" transform="translate(0 0)"/><path class="cls-1" d="M709,870.63l-37.35.78-.21-323.75c0-7.84.42-7.1-7.36-7.1h-8.57v-.11h48.3c-2.16,0-3.2,1-3.12,3.51.26,7.43-.31,14.88.33,22.3-.1,3.15-.31,6.3-.31,9.45,0,78,3,216.9,2.94,294.95Z" transform="translate(0 0)"/><path class="cls-1" d="M642.9,217.84c8.37,0,7.53-.9,7.54,7.36,0,6.14-.11,12.27-.17,18.41s.17,12.25.17,18.38q0,42.36,0,84.72c0,2.39.1,4.77.15,7.15l22,0c.06-2.23.17-4.46.17-6.69q0-68.35-.09-136.71a11.9,11.9,0,0,1,3.83-9.26Q749,128.93,821.35,56.48c4.73-4.73,4-4.72,8.51-.19,27.23,27.22,54.58,54.33,81.58,81.77,5.3,5.4,10.52,11,15.93,16.23,15,14.62,29.73,29.6,44.79,44.19a23.32,23.32,0,0,1,7.69,18.17c-.28,43.15-.14,86.3-.12,129.46,0,2.6.14,5.2.22,7.8l21.89-.14q.06-41.19.12-82.38,0-13.92.11-27.83c-.05-7.44-.05-14.88-.18-22.32,0-2.6,1-3.8,3.59-3.6.93.07,1.86,0,2.79,0H1142.2c.94,0,1.87.08,2.79,0,2.62-.21,3.66.93,3.61,3.57-.15,7.43-.15,14.87-.22,22.31q0,10.68.07,21.36l0,3,.45,7.92c-.65,3.31-.3,6.65-.31,10q-.15,30.84-.22,61.66c1.63,2,.8,4.35.84,6.57,4.09,0,8.18.07,12.27.07h5.43l-3.19-135.45h27l-.24-26.41c-1.43,1.18-3.16.63-4.74.63q-89.89,0-179.8.12c-4.19,0-6.87-1.64-9.64-4.4Q913.4,105.65,830.39,22.83c-5.43-5.43-4.27-5.53-9.7-.09Q758.58,85,696.49,147.27c-14.2,14.22-28.58,28.27-42.76,42.5a10.14,10.14,0,0,1-7.86,3.2q-225.58-.1-451.16-.08c-1.24,0-2.58.4-4.5-.95l.48,25.72Z" transform="translate(0 0)"/></svg>