<svg id="Layer_1" data-name="Layer 1" xmlns="http://www.w3.org/2000/svg" viewBox="0 0 1662 512"><defs><style>.cls-1{fill:none;stroke:#41a5a1;stroke-linecap:round;stroke-linejoin:round;stroke-width:20px;}.cls-2{fill:#41a5a1;}.cls-3{fill:#fff;}</style></defs><path class="cls-1" d="M253,167.94l-25.66-25.5c-10.63-10.56-29.4-10.56-40,0L33.81,295"/><line class="cls-1" x1="380.9" y1="294.97" x2="345.34" y2="259.64"/><path class="cls-1" d="M333.51,288.41V449.57c0,12.94-11.95,23.43-26.7,23.43H107.9c-14.75,0-26.7-10.49-26.7-23.43V288.41"/><path class="cls-1" d="M478.19,123.11c0,46.46-43.71,84.11-97.62,84.11a112,112,0,0,1-20.84-1.92L260.31,247,303.9,175.2c-13.13-14.32-21-32.42-21-52.09,0-46.45,43.7-84.11,97.63-84.11S478.19,76.66,478.19,123.11Z"/><circle class="cls-2" cx="138.96" cy="319.09" r="16.51"/><rect class="cls-2" x="168.77" y="311.23" width="123.77" height="16.51" rx="5.25"/><circle class="cls-2" cx="138.68" cy="359.97" r="16.51"/><rect class="cls-2" x="168.55" y="352.11" width="123.77" height="16.51" rx="5.25"/><circle class="cls-2" cx="138.68" cy="400.85" r="16.51"/><rect class="cls-2" x="168.55" y="392.99" width="123.77" height="16.51" rx="5.25"/><path class="cls-2" d="M367.66,131.5l11.46,10.78q-10.78,13.58-28.6,13.58a34.3,34.3,0,0,1-17.37-4.34,30.92,30.92,0,0,1-11.8-11.89,34.94,34.94,0,0,1-4.23-17.37,35.53,35.53,0,0,1,4.23-17.48A31.49,31.49,0,0,1,333.1,92.7a33.67,33.67,0,0,1,17.42-4.43A42.32,42.32,0,0,1,366,91.06a26.53,26.53,0,0,1,12.08,9.73l-11.27,11.36a21.48,21.48,0,0,0-6.45-5.88,16.56,16.56,0,0,0-8.56-2.21,17.15,17.15,0,0,0-9.2,2.36,15.7,15.7,0,0,0-5.82,6.35,19.66,19.66,0,0,0-2,9,20,20,0,0,0,2.07,9.2,15.38,15.38,0,0,0,5.92,6.4,17,17,0,0,0,8.95,2.31,18,18,0,0,0,9.15-2A26,26,0,0,0,367.66,131.5Z"/><path class="cls-2" d="M431.68,131.5l11.46,10.78q-10.78,13.58-28.59,13.58a34.31,34.31,0,0,1-17.38-4.34,30.82,30.82,0,0,1-11.79-11.89,34.84,34.84,0,0,1-4.24-17.37,35.42,35.42,0,0,1,4.24-17.48A31.47,31.47,0,0,1,397.12,92.7a33.71,33.71,0,0,1,17.43-4.43A42.23,42.23,0,0,1,430,91.06a26.53,26.53,0,0,1,12.08,9.73l-11.26,11.36a21.72,21.72,0,0,0-6.45-5.88,16.63,16.63,0,0,0-8.57-2.21,17.15,17.15,0,0,0-9.2,2.36,15.7,15.7,0,0,0-5.82,6.35,19.66,19.66,0,0,0-2,9,20.08,20.08,0,0,0,2.07,9.2,15.38,15.38,0,0,0,5.92,6.4,17.07,17.07,0,0,0,8.95,2.31,18,18,0,0,0,9.15-2A25.85,25.85,0,0,0,431.68,131.5Z"/><path class="cls-3" d="M633.8,312.88l23.8,22.41q-22.4,28.18-59.4,28.19-20.4,0-36.1-9a64.15,64.15,0,0,1-24.5-24.69q-8.8-15.71-8.8-36.1t8.8-36.31A65.42,65.42,0,0,1,562,232.29q15.6-9.21,36.2-9.21a87.83,87.83,0,0,1,32.1,5.8q14.9,5.81,25.1,20.2L632,272.69a44.84,44.84,0,0,0-13.4-12.21,34.43,34.43,0,0,0-17.8-4.6q-11.2,0-19.1,4.91A32.46,32.46,0,0,0,569.6,274a40.87,40.87,0,0,0-4.2,18.71,41.7,41.7,0,0,0,4.3,19.1A32.09,32.09,0,0,0,582,325.08a35.34,35.34,0,0,0,18.6,4.8q11.8,0,19-4.19A54,54,0,0,0,633.8,312.88Z"/><path class="cls-3" d="M664.4,313.08a51.6,51.6,0,0,1,6.3-25.39,47.07,47.07,0,0,1,17.7-18.11,50.79,50.79,0,0,1,26.2-6.7q15,0,26.3,6.7a47.31,47.31,0,0,1,17.6,18.11,54.33,54.33,0,0,1,0,50.79,47.28,47.28,0,0,1-17.6,18.1q-11.29,6.71-26.3,6.71a50.7,50.7,0,0,1-26.2-6.71,47,47,0,0,1-17.7-18.1A51.61,51.61,0,0,1,664.4,313.08Zm50.2,20.61q8.4,0,13.4-5.9a24.12,24.12,0,0,0,0-29.41q-5-5.89-13.4-5.9t-13.4,5.9a24.12,24.12,0,0,0,0,29.41Q706.2,333.69,714.6,333.69Z"/><path class="cls-3" d="M780.4,360.08v-94H813l1.2,10.4a31.34,31.34,0,0,1,12.7-9.79,37.93,37.93,0,0,1,14.5-3q8.8,0,14.3,2.5a28.64,28.64,0,0,1,8.5,5.5,48.35,48.35,0,0,1,4.2,4.6,29.33,29.33,0,0,1,8.2-6.21,62.11,62.11,0,0,1,11.1-4.6,39,39,0,0,1,11.3-1.79q18,0,27.6,10t9.6,27.19v59.2H902.4v-50.2q0-7.59-3-12t-9.8-4.4a14.86,14.86,0,0,0-11.1,4.4q-4.31,4.41-4.3,12v50.2H842.4v-50.2q0-7.59-2.9-12t-9.9-4.4a15,15,0,0,0-10.9,4.4q-4.5,4.41-4.5,12v50.2Z"/><path class="cls-3" d="M955,325.48v-59.4h33.8v51.4q0,6.81,2.9,11.1t10.3,4.3q8,0,11.1-5.19a21.51,21.51,0,0,0,3.1-11.21v-50.4H1050v94h-32.6l-1.2-9.6a27.07,27.07,0,0,1-8.7,7.31,42.41,42.41,0,0,1-18.5,4.9q-14.6,0-24.3-8.71T955,325.48Z"/><path class="cls-3" d="M1069.6,360.08v-94h32.6l1.2,9.8a29.71,29.71,0,0,1,8.8-7.3,38.62,38.62,0,0,1,10-3.79,38.94,38.94,0,0,1,26,2.69,27.81,27.81,0,0,1,12.3,12q4.5,8.2,4.5,21.4v59.2h-33.8v-51.2c0-4.66-1-8.4-2.9-11.19s-5-4.21-9.3-4.21q-9,0-12.3,5.21a20.47,20.47,0,0,0-3.3,11.19v50.2Z"/><path class="cls-3" d="M1183.4,253.29v-26.6H1220v26.6Zm1.4,106.79v-94h33.8v94Z"/><path class="cls-2" d="M1304.8,325.08l19.8,22.61q-5.2,5.79-15.1,10.69t-23.9,4.91a52.47,52.47,0,0,1-25.7-6.31,47.54,47.54,0,0,1-18.3-17.69q-6.81-11.4-6.8-26.41a48.46,48.46,0,0,1,6.8-25.5,50.1,50.1,0,0,1,18.3-17.9,50.67,50.67,0,0,1,25.7-6.6q14,0,23.5,4.41a46.22,46.22,0,0,1,15.5,11.19l-19.8,22.6a40.2,40.2,0,0,0-6.1-5.6q-3.9-3-12.1-3a16.93,16.93,0,0,0-12.4,5.5q-5.4,5.5-5.4,14.9,0,9.21,5.4,15t12.4,5.81q7.8,0,12-3.31A71.64,71.64,0,0,0,1304.8,325.08Z"/><path class="cls-2" d="M1389.8,360.08l-1.2-8.79q-6.4,6.79-12.9,9.4a43.64,43.64,0,0,1-16.1,2.6,39,39,0,0,1-13-2.41,25,25,0,0,1-11.6-8.59q-4.8-6.21-4.8-17.41,0-11.38,6.2-19a38.25,38.25,0,0,1,16.5-11.5,62.66,62.66,0,0,1,22.3-3.9q4.59,0,7.4.21t6,.6v-1.81c0-3.33-.84-5.83-2.5-7.5a13,13,0,0,0-6.1-3.4,28.83,28.83,0,0,0-7-.89,49.64,49.64,0,0,0-15.7,2.29,42.26,42.26,0,0,0-11.1,5.31l-12.8-19.41q6-4.78,16.9-8.8t27.5-4q19.59,0,31.7,10.11t12.1,30.1v56.79Zm-1.2-34.39v-6.21a42.26,42.26,0,0,0-9.2-.79q-8.4,0-12.4,3.29a10,10,0,0,0-4,7.9q0,10.41,11.2,10.41a17.3,17.3,0,0,0,9.8-3.1Q1388.59,334.09,1388.6,325.69Z"/><path class="cls-2" d="M1434,350.29l14.4-21.41a34.25,34.25,0,0,0,8,4.7,57.51,57.51,0,0,0,9.9,3.3,39,39,0,0,0,8.9,1.2,28.73,28.73,0,0,0,8.9-1.2q3.71-1.2,3.7-5.59c0-2.27-1.4-4-4.2-5.21s-7.93-2.93-15.4-5.2q-12.39-3.79-20.4-10.19t-8-18.61a23.33,23.33,0,0,1,5.1-14.6,35.64,35.64,0,0,1,14.2-10.6,52.15,52.15,0,0,1,21.1-4,73.25,73.25,0,0,1,21,2.81,63.09,63.09,0,0,1,17.4,8.19l-11.4,21a83.58,83.58,0,0,0-11.3-5.59,32.32,32.32,0,0,0-12.3-2.41q-10.39,0-10.4,5.6a5.32,5.32,0,0,0,3.2,4.9,36.83,36.83,0,0,0,8.6,3,118.72,118.72,0,0,1,11.6,3.5q14.21,4.8,19,12a30,30,0,0,1,4.8,17q0,8.61-3.8,14.5a27.69,27.69,0,0,1-10.2,9.41,48.81,48.81,0,0,1-13.9,5,76.79,76.79,0,0,1-15.1,1.5,89.46,89.46,0,0,1-24.1-3.31Q1441.4,356.7,1434,350.29Z"/><path class="cls-2" d="M1592.39,360.08l-1.2-8.79q-6.4,6.79-12.9,9.4a43.6,43.6,0,0,1-16.1,2.6,39.06,39.06,0,0,1-13-2.41,25,25,0,0,1-11.6-8.59q-4.8-6.21-4.8-17.41,0-11.38,6.2-19a38.25,38.25,0,0,1,16.5-11.5,62.7,62.7,0,0,1,22.3-3.9c3.07,0,5.53.07,7.4.21s3.87.33,6,.6v-1.81q0-5-2.5-7.5a13,13,0,0,0-6.1-3.4,28.77,28.77,0,0,0-7-.89,49.64,49.64,0,0,0-15.7,2.29,42.26,42.26,0,0,0-11.1,5.31L1536,275.88q6-4.78,16.9-8.8t27.5-4q19.6,0,31.7,10.11t12.1,30.1v56.79Zm-1.2-34.39v-6.21a42.19,42.19,0,0,0-9.2-.79q-8.4,0-12.4,3.29a10,10,0,0,0-4,7.9q0,10.41,11.2,10.41a17.28,17.28,0,0,0,9.8-3.1Q1591.2,334.09,1591.19,325.69Z"/></svg>