<svg id="Layer_1" data-name="Layer 1" xmlns="http://www.w3.org/2000/svg" viewBox="0 0 1662 512"><defs><style>.cls-1{fill:none;stroke:#41a5a1;stroke-linecap:round;stroke-linejoin:round;stroke-width:20px;}.cls-2,.cls-3,.cls-6{fill:#41a5a1;}.cls-3{font-size:96.27px;}.cls-3,.cls-5{font-family:Effra-Heavy, Effra;font-weight:800;}.cls-4{letter-spacing:-0.02em;}.cls-5{font-size:200px;fill:#fff;}.cls-6{letter-spacing:0em;}</style></defs><path class="cls-1" d="M253,167.94l-25.66-25.5c-10.63-10.56-29.4-10.56-40,0L33.81,295"/><line class="cls-1" x1="380.9" y1="294.97" x2="345.34" y2="259.64"/><path class="cls-1" d="M333.51,288.41V449.57c0,12.94-11.95,23.43-26.7,23.43H107.9c-14.75,0-26.7-10.49-26.7-23.43V288.41"/><path class="cls-1" d="M478.19,123.11c0,46.46-43.71,84.11-97.62,84.11a112,112,0,0,1-20.84-1.92L260.31,247,303.9,175.2c-13.13-14.32-21-32.42-21-52.09,0-46.45,43.7-84.11,97.63-84.11S478.19,76.66,478.19,123.11Z"/><circle class="cls-2" cx="138.96" cy="319.09" r="16.51"/><rect class="cls-2" x="168.77" y="311.23" width="123.77" height="16.51" rx="5.25"/><circle class="cls-2" cx="138.68" cy="359.97" r="16.51"/><rect class="cls-2" x="168.55" y="352.11" width="123.77" height="16.51" rx="5.25"/><circle class="cls-2" cx="138.68" cy="400.85" r="16.51"/><rect class="cls-2" x="168.55" y="392.99" width="123.77" height="16.51" rx="5.25"/><text class="cls-3" transform="translate(313.84 154.22)"><tspan class="cls-4">C</tspan><tspan x="64.02" y="0">C</tspan></text><text class="cls-5" transform="translate(522 360.08)">Comuni<tspan class="cls-6" x="707" y="0">casa</tspan></text></svg>