<svg id="Layer_1" data-name="Layer 1" xmlns="http://www.w3.org/2000/svg" viewBox="0 0 464.38 454"><defs><style>.cls-1{fill:none;stroke:#41a5a1;stroke-linecap:round;stroke-linejoin:round;stroke-width:20px;}.cls-2,.cls-3{fill:#41a5a1;}.cls-3{font-size:96.27px;font-family:Effra-Heavy, Effra;font-weight:800;}.cls-4{letter-spacing:-0.02em;}</style></defs><path class="cls-1" d="M253,167.94l-25.66-25.5c-10.63-10.56-29.4-10.56-40,0L33.81,295" transform="translate(-23.81 -29)"/><path class="cls-1" d="M331.07,245.47" transform="translate(-23.81 -29)"/><line class="cls-1" x1="357.09" y1="265.97" x2="321.53" y2="230.64"/><path class="cls-1" d="M333.51,288.41V449.57c0,12.94-11.95,23.43-26.7,23.43H107.9c-14.75,0-26.7-10.49-26.7-23.43V288.41" transform="translate(-23.81 -29)"/><path class="cls-1" d="M478.19,123.11c0,46.46-43.71,84.11-97.62,84.11a112,112,0,0,1-20.84-1.92L260.31,247,303.9,175.2c-13.13-14.32-21-32.42-21-52.09,0-46.45,43.7-84.11,97.63-84.11S478.19,76.66,478.19,123.11Z" transform="translate(-23.81 -29)"/><circle class="cls-2" cx="115.14" cy="290.09" r="16.51"/><rect class="cls-2" x="144.96" y="282.23" width="123.77" height="16.51" rx="5.25"/><circle class="cls-2" cx="114.87" cy="330.97" r="16.51"/><rect class="cls-2" x="144.74" y="323.11" width="123.77" height="16.51" rx="5.25"/><circle class="cls-2" cx="114.87" cy="371.85" r="16.51"/><rect class="cls-2" x="144.74" y="363.99" width="123.77" height="16.51" rx="5.25"/><text class="cls-3" transform="translate(290.03 125.22)"><tspan class="cls-4">C</tspan><tspan x="64.02" y="0">C</tspan></text></svg>