<svg id="Layer_1" data-name="Layer 1" xmlns="http://www.w3.org/2000/svg" viewBox="0 0 464.38 454"><defs><style>.cls-1{fill:none;stroke:#41a5a1;stroke-linecap:round;stroke-linejoin:round;stroke-width:20px;}.cls-2{fill:#41a5a1;}</style></defs><path class="cls-1" d="M253,167.94l-25.66-25.5c-10.63-10.56-29.4-10.56-40,0L33.81,295" transform="translate(-23.81 -29)"/><path class="cls-1" d="M331.07,245.47" transform="translate(-23.81 -29)"/><line class="cls-1" x1="357.09" y1="265.97" x2="321.53" y2="230.64"/><path class="cls-1" d="M333.51,288.41V449.57c0,12.94-11.95,23.43-26.7,23.43H107.9c-14.75,0-26.7-10.49-26.7-23.43V288.41" transform="translate(-23.81 -29)"/><path class="cls-1" d="M478.19,123.11c0,46.46-43.71,84.11-97.62,84.11a112,112,0,0,1-20.84-1.92L260.31,247,303.9,175.2c-13.13-14.32-21-32.42-21-52.09,0-46.45,43.7-84.11,97.63-84.11S478.19,76.66,478.19,123.11Z" transform="translate(-23.81 -29)"/><circle class="cls-2" cx="115.14" cy="290.09" r="16.51"/><rect class="cls-2" x="144.96" y="282.23" width="123.77" height="16.51" rx="5.25"/><circle class="cls-2" cx="114.87" cy="330.97" r="16.51"/><rect class="cls-2" x="144.74" y="323.11" width="123.77" height="16.51" rx="5.25"/><circle class="cls-2" cx="114.87" cy="371.85" r="16.51"/><rect class="cls-2" x="144.74" y="363.99" width="123.77" height="16.51" rx="5.25"/><path class="cls-2" d="M367.66,131.5l11.46,10.78q-10.78,13.58-28.6,13.58a34.3,34.3,0,0,1-17.37-4.34,30.92,30.92,0,0,1-11.8-11.89,34.94,34.94,0,0,1-4.23-17.37,35.53,35.53,0,0,1,4.23-17.48A31.49,31.49,0,0,1,333.1,92.7a33.67,33.67,0,0,1,17.42-4.43A42.32,42.32,0,0,1,366,91.06a26.53,26.53,0,0,1,12.08,9.73l-11.27,11.36a21.48,21.48,0,0,0-6.45-5.88,16.56,16.56,0,0,0-8.56-2.21,17.15,17.15,0,0,0-9.2,2.36,15.7,15.7,0,0,0-5.82,6.35,19.66,19.66,0,0,0-2,9,20,20,0,0,0,2.07,9.2,15.38,15.38,0,0,0,5.92,6.4,17,17,0,0,0,8.95,2.31,18,18,0,0,0,9.15-2A26,26,0,0,0,367.66,131.5Z" transform="translate(-23.81 -29)"/><path class="cls-2" d="M431.68,131.5l11.46,10.78q-10.78,13.58-28.59,13.58a34.31,34.31,0,0,1-17.38-4.34,30.82,30.82,0,0,1-11.79-11.89,34.84,34.84,0,0,1-4.24-17.37,35.42,35.42,0,0,1,4.24-17.48A31.47,31.47,0,0,1,397.12,92.7a33.71,33.71,0,0,1,17.43-4.43A42.23,42.23,0,0,1,430,91.06a26.53,26.53,0,0,1,12.08,9.73l-11.26,11.36a21.72,21.72,0,0,0-6.45-5.88,16.63,16.63,0,0,0-8.57-2.21,17.15,17.15,0,0,0-9.2,2.36,15.7,15.7,0,0,0-5.82,6.35,19.66,19.66,0,0,0-2,9,20.08,20.08,0,0,0,2.07,9.2,15.38,15.38,0,0,0,5.92,6.4,17.07,17.07,0,0,0,8.95,2.31,18,18,0,0,0,9.15-2A25.85,25.85,0,0,0,431.68,131.5Z" transform="translate(-23.81 -29)"/></svg>