<?xml version="1.0" standalone="no"?>
<!DOCTYPE svg PUBLIC "-//W3C//DTD SVG 20010904//EN"
 "http://www.w3.org/TR/2001/REC-SVG-20010904/DTD/svg10.dtd">
<svg version="1.0" xmlns="http://www.w3.org/2000/svg"
 width="512.000000pt" height="512.000000pt" viewBox="0 0 512.000000 512.000000"
 preserveAspectRatio="xMidYMid meet">
<metadata>
Created by potrace 1.14, written by Peter Selinger 2001-2017
</metadata>
<g transform="translate(0.000000,512.000000) scale(0.100000,-0.100000)"
fill="#000000" stroke="none">
<path d="M3608 4815 c-227 -36 -449 -147 -607 -303 -165 -162 -255 -355 -268
-573 -12 -200 30 -344 164 -560 16 -25 14 -28 -32 -105 -27 -43 -111 -182
-189 -309 -196 -323 -187 -303 -161 -360 27 -56 85 -69 158 -36 23 11 141 60
262 111 121 50 229 95 240 100 11 5 112 48 225 96 188 78 209 85 252 79 60 -7
240 -8 293 0 41 6 95 14 131 21 53 10 187 59 263 96 162 80 299 199 395 343
236 354 187 789 -123 1096 -161 159 -359 259 -601 304 -72 13 -315 13 -402 0z
m422 -210 c386 -92 650 -383 650 -715 1 -216 -113 -425 -306 -563 -126 -90
-245 -137 -439 -172 -43 -8 -212 -7 -265 2 -25 4 -58 7 -75 7 -24 -1 -204 -69
-300 -114 -70 -33 -429 -179 -432 -176 -2 2 60 108 137 236 88 145 140 242
140 259 0 25 -18 60 -47 89 -7 8 -27 34 -44 58 -236 344 -106 788 293 998 92
49 222 93 301 102 29 4 54 8 57 11 10 9 271 -7 330 -22z"/>
<path d="M3417 4230 c-154 -39 -248 -176 -242 -352 7 -186 133 -308 323 -315
103 -3 182 23 248 82 l47 41 -58 52 -58 53 -31 -29 c-42 -40 -62 -49 -121 -51
-127 -4 -204 118 -164 262 13 49 70 104 114 113 68 12 138 -10 176 -58 15 -20
17 -19 73 37 l58 57 -28 29 c-28 30 -93 65 -135 75 -46 11 -165 13 -202 4z"/>
<path d="M4024 4219 c-157 -59 -242 -237 -199 -419 20 -86 89 -168 175 -209
47 -22 69 -26 150 -26 83 0 103 4 156 29 34 15 76 42 93 60 l32 33 -57 52 -56
53 -32 -30 c-44 -41 -87 -55 -146 -49 -63 7 -102 35 -130 93 -19 37 -22 57
-18 109 9 111 61 166 157 171 60 3 99 -12 136 -52 l23 -25 57 56 57 57 -23 24
c-79 85 -254 118 -375 73z"/>
<path d="M2008 3869 c-112 -17 -144 -42 -438 -334 -151 -150 -512 -509 -803
-797 l-527 -523 0 -41 c0 -33 7 -49 30 -74 28 -30 35 -32 75 -28 44 5 56 17
622 581 318 316 671 667 784 780 114 113 220 212 235 220 47 23 90 27 141 12
41 -12 70 -37 193 -158 80 -79 155 -149 167 -155 72 -39 155 28 139 111 -5 26
-40 66 -159 184 -150 147 -206 190 -277 211 -48 15 -126 20 -182 11z"/>
<path d="M3431 2619 c-59 -13 -94 -85 -67 -137 24 -45 388 -400 419 -407 76
-19 141 46 122 123 -7 30 -369 393 -414 416 -17 8 -38 10 -60 5z"/>
<path d="M762 2320 c-18 -11 -37 -31 -41 -44 -6 -13 -9 -388 -9 -860 0 -817 0
-839 20 -898 29 -86 109 -165 204 -201 l69 -26 1055 0 c1145 -1 1121 -2 1209
53 87 56 142 133 158 222 5 27 9 420 8 875 0 766 -1 827 -17 852 -37 55 -138
52 -169 -5 -11 -18 -13 -196 -14 -860 0 -827 0 -837 -21 -865 -11 -15 -40 -38
-64 -51 l-44 -22 -1032 0 c-1118 0 -1066 -2 -1126 54 -15 15 -28 40 -32 63 -3
21 -5 394 -5 828 0 435 0 800 0 812 -1 32 -50 82 -86 88 -20 3 -42 -2 -63 -15z"/>
<path d="M1334 2084 c-74 -25 -120 -106 -107 -188 9 -58 75 -121 135 -130 174
-26 266 203 120 298 -46 30 -98 37 -148 20z"/>
<path d="M1713 2002 c-21 -13 -30 -53 -23 -98 4 -24 10 -48 14 -52 4 -4 275
-8 602 -8 502 -2 595 0 605 12 7 8 14 36 17 63 3 40 1 52 -17 70 -21 21 -24
21 -603 21 -321 0 -588 -4 -595 -8z"/>
<path d="M1324 1675 c-16 -6 -44 -28 -61 -48 -57 -65 -56 -151 2 -216 19 -20
49 -42 67 -47 73 -23 157 6 196 67 24 39 28 128 7 169 -34 67 -141 105 -211
75z"/>
<path d="M1700 1585 c-13 -16 -22 -107 -11 -122 19 -29 60 -31 622 -31 468 0
578 3 594 14 27 20 27 120 0 140 -29 22 -1187 21 -1205 -1z"/>
<path d="M1314 1260 c-104 -52 -124 -194 -39 -269 152 -133 360 56 243 222
-42 59 -135 81 -204 47z"/>
<path d="M1748 1192 c-23 -2 -43 -11 -51 -23 -17 -23 -15 -115 2 -132 9 -9
163 -12 603 -12 l590 0 18 23 c22 27 20 106 -3 129 -13 13 -85 16 -569 17
-304 0 -570 0 -590 -2z"/>
</g>
</svg>
